# xmcd
#
# Track frame offsets:
#	150
#	33947
#	48282
#	65377
#	78870
#	92725
#	111205
#	129175
#	148240
#	162217
#	184867
#	213372
#
# Disc length: 3090 seconds
#
# Revision: 0
# Processed by: cddbd v1.4b41PL1 Copyright (c) Steve Scherf et al.
# Submitted via: audiograbber 1.80
#
DISCID=9c0c100c
DTITLE=Various Artist - Chalry's soul junction
DYEAR=1900
DGENRE=
TTITLE0=Curtis Mayfield "Right on for the darkness"
TTITLE1=Isaac' Redd' Holt Unlimited "Do it baby"
TTITLE2=Stanley Cowell "Travelin' man"
TTITLE3=Arnold Blair "Trying to get next to you"
TTITLE4=The Backyards Heavies "Soul junction"
TTITLE5=Natural Four "Count on me"
TTITLE6=S.O.U.L. "Burning spear"
TTITLE7=Aaron Neville "Hercules"
TTITLE8=African Music Machine "Black water gold"
TTITLE9=Leroy Hutson "lucky fellow"
TTITLE10=Maceo and all the King's men "Thank you for letting be myself again"
TTITLE11=Young Holt Unlimited "Hey Pancho"
EXTD=
EXTT0=
EXTT1=
EXTT2=
EXTT3=
EXTT4=
EXTT5=
EXTT6=
EXTT7=
EXTT8=
EXTT9=
EXTT10=
EXTT11=
PLAYORDER=
